# xmcd
#
# Track frame offsets:
#	150
#	31455
#	47888
#	72034
#	82113
#	100103
#	124040
#	144017
#	160426
#	176318
#	181588
#	207908
#	250568
#	305595
# Disc length: 4279 seconds
# Revision: 1
# Processed by: cddbd v1.5.1PL0 Copyright (c) Steve Scherf et al.
#
# Submitted via: libkcddb 0.21
#
DISCID=b110b50e
DTITLE=Marvin Gaye - Marvin Gaye Live
DYEAR=2002
DGENRE=Unknown
TTITLE0=Medley
TTITLE1=Come Get To This
TTITLE2=Let Get It On
TTITLE3=God Is My Friend
TTITLE4=What's Going On
TTITLE5=Inner City Blues
TTITLE6=Joy
TTITLE7=Ain't Nothing Like The Real Think
TTITLE8=Heaven Must Send You
TTITLE9=If this World Where Mine
TTITLE10=Rockin' After Midnight
TTITLE11=Distant Lover
TTITLE12=I Heard It throught the Grapewine
TTITLE13=Bonus Track - Live but digitally reworked
EXTD=
EXTT0=
EXTT1=
EXTT2=
EXTT3=
EXTT4=
EXTT5=
EXTT6=
EXTT7=
EXTT8=
EXTT9=
EXTT10=
EXTT11=
EXTT12=
EXTT13=
PLAYORDER=
